<svg width="16px" height="16px" viewBox="0 0 16 16" version="1.1" 
    xmlns="http://www.w3.org/2000/svg" 
    xmlns:xlink="http://www.w3.org/1999/xlink">
    <g id="Page-1" stroke="none" stroke-width="1" fill="none" fill-rule="evenodd">
        <g id="cough" fill="#e3342f">
            <path d="M12.0847953,11.0124512 C12.0847953,11.2713623 11.8752437,11.4812012 11.6169591,11.4812012 C11.3585526,11.4812012 11.1491228,11.2713623 11.1491228,11.0124512 C11.1491228,10.7536621 11.3585526,10.5437012 11.6169591,10.5437012 C11.8752437,10.5437012 12.0847953,10.7536621 12.0847953,11.0124512 Z" id="Path"></path>
            <path d="M13.5257066,10.0083008 C13.5257066,10.2672119 13.3162768,10.4770508 13.0578704,10.4770508 C12.7994639,10.4770508 12.5900341,10.2672119 12.5900341,10.0083008 C12.5900341,9.74951172 12.7994639,9.53955078 13.0578704,9.53955078 C13.3162768,9.53955078 13.5257066,9.74951172 13.5257066,10.0083008 Z" id="Path"></path>
            <path d="M13.5257066,12.0167236 C13.5257066,12.2755127 13.3162768,12.4854736 13.0578704,12.4854736 C12.7994639,12.4854736 12.5900341,12.2755127 12.5900341,12.0167236 C12.5900341,11.7578125 12.7994639,11.5479736 13.0578704,11.5479736 C13.3162768,11.5479736 13.5257066,11.7578125 13.5257066,12.0167236 Z" id="Path"></path>
            <path d="M10.4566277,5.29541016 L10.4566277,4.13842775 C10.4566277,3.14343262 9.55311891,0 5.60209553,0 C2.50328948,0 0,2.51293944 0,5.61340331 C0,6.59020997 0.230506823,7.56835938 0.666544842,8.44189453 L0.95236354,9.01489256 C1.17275827,9.45654297 1.39961014,9.91125488 1.58979044,10.2919922 C1.82967835,10.7727051 1.86988304,11.3409424 1.70017057,11.8508301 L0.525097481,15.3830566 C0.424220257,15.6862793 0.649853817,16 0.968932741,16 L5.60209553,16 C5.80348441,16 5.98233432,15.8709717 6.04593079,15.6795654 L6.44042398,14.4937744 L7.747807,14.4937744 C8.69030213,14.4937744 9.53752437,13.9691162 9.95906433,13.1245117 L10.4072856,12.2263184 C10.5627437,11.9147949 10.3360137,11.5479736 9.98879142,11.5479736 L8.48550194,11.5479736 C8.19456627,11.5479736 7.95114523,11.3123779 7.95114523,11.0124512 C7.95114523,10.4404297 8.41557018,9.97497559 8.98659842,9.97497559 L10.4898879,9.97497559 C10.7482944,9.97497559 10.9577242,9.76513672 10.9577242,9.50622559 L10.9577242,8.97082519 L11.2997076,8.97082519 C11.9400585,8.97082519 12.4610136,8.44885253 12.4610136,7.80676269 C12.4610136,7.48706056 12.3316277,7.17407225 12.1059942,6.94812012 L10.4566277,5.29541016 Z" id="Path"></path>
            <path d="M14.9471248,9.40173341 L15.7489035,8.89965819 C15.9679581,8.76245119 16.0346004,8.47326659 15.8976608,8.25366212 C15.7607212,8.03417969 15.4721004,7.96740722 15.2530458,8.10461425 L14.4512671,8.60668944 C14.2320906,8.7438965 14.1654484,9.03308106 14.3023879,9.25256347 C14.4039961,9.41540528 14.6767788,9.57092284 14.9471248,9.40173341 Z" id="Path"></path>
            <path d="M15.7489035,13.1254883 L14.9471248,12.623291 C14.7279484,12.486084 14.4393275,12.5528564 14.3023879,12.7724609 C14.1654484,12.9919434 14.2320906,13.2811279 14.4511452,13.418335 L15.252924,13.9204102 C15.5264376,14.0916748 15.7998294,13.9282227 15.8976608,13.7713623 C16.0346004,13.5518799 15.9679581,13.2625733 15.7489035,13.1254883 Z" id="Path"></path>
            <path d="M14.6991959,11.4812012 L15.5009747,11.4812012 C15.7593811,11.4812012 15.9688109,11.2713623 15.9688109,11.0124512 C15.9688109,10.7536621 15.7593811,10.5437012 15.5009747,10.5437012 L14.6991959,10.5437012 C14.4407895,10.5437012 14.2313597,10.7536621 14.2313597,11.0124512 C14.2313597,11.2713623 14.4407895,11.4812012 14.6991959,11.4812012 Z" id="Path"></path>
        </g>
    </g>
</svg>