<svg width="16px" height="16px" viewBox="0 0 16 16" version="1.1" 
    xmlns="http://www.w3.org/2000/svg" 
    xmlns:xlink="http://www.w3.org/1999/xlink">
    <g stroke="none" stroke-width="1" fill="none" fill-rule="evenodd">
        <g id="dna-chromosome" fill="#E3342F" fill-rule="nonzero">
            <path d="M15.574863,4.10662532 C15.2955866,4.04419638 14.997416,4.23582429 14.9393282,4.49612403 C14.9231628,4.55768475 14.8643721,4.75952455 14.723845,5.03102842 L10.9572713,1.26453747 C11.2665633,1.1069354 11.482832,1.05690956 11.4885375,1.05525581 C12.1764961,0.893891473 11.9312041,-0.145571059 11.2422532,0.0172816537 C11.1995866,0.0277002584 7.02284238,1.11805685 7.70914729,7.08006202 C7.43495607,7.06220155 7.16163307,7.05360207 6.89339535,7.05360207 C2.02364858,7.05360207 0.160206718,10.1141499 0.0837622739,10.2430181 C-0.28055814,10.8571783 0.641943152,11.3738501 0.998821705,10.7904083 C1.02714212,10.7442274 1.17325065,10.5143152 1.46716279,10.2035349 L5.7884031,14.5262636 C5.48055814,14.8174884 5.24994315,14.9646718 5.20624289,14.9915039 C4.60010336,15.3524341 5.14145736,16.2625736 5.74842377,15.9100775 C5.89366408,15.8231731 9.28057881,13.7442481 8.91162791,8.28204651 C13.278801,8.78900258 15.5337261,6.57112145 15.9761447,4.74455814 C16.042584,4.45490439 15.8576537,4.16669767 15.574863,4.10662532 Z M7.76756589,10.5170439 L5.47539018,8.22437209 C6.20675969,8.1136124 7.02156072,8.09153488 7.83297158,8.15884238 C7.90189147,8.98282171 7.87977261,9.77500775 7.76756589,10.5170439 Z M4.20221189,8.50741085 L7.46968475,11.7938605 C7.14249096,12.7623359 6.74538501,13.4130026 6.46586047,13.7389561 L2.25744703,9.51586563 C2.98472351,8.92547804 3.9278553,8.63049096 4.20221189,8.50741085 Z M8.72934367,5.01473902 L10.9662016,7.2597416 C10.3073075,7.3227907 9.56973643,7.30071318 8.79714729,7.19669251 C8.69060465,6.41070801 8.66753488,5.67722997 8.72934367,5.01473902 Z M12.2543876,7.00320413 L8.9721137,3.74801034 C9.21116279,2.97542119 9.55452196,2.43878036 10.0120724,1.95617571 L14.0509767,5.93604134 L14.008062,5.98941602 C13.3653333,6.61180362 12.5284548,6.95677519 12.2543876,7.00320413 Z" id="Shape"></path>
        </g>
    </g>
</svg>