<svg width="16px" height="16px" viewBox="0 0 16 16" version="1.1" 
    xmlns="http://www.w3.org/2000/svg" 
    xmlns:xlink="http://www.w3.org/1999/xlink">
    <g id="Page-1" stroke="none" stroke-width="1" fill="none" fill-rule="evenodd">
        <g id="sick-svgrepo-com" fill-rule="nonzero">
            <path d="M7.98443665,15.3980819 C3.89651462,15.3980819 0.570729045,12.0723587 0.570729045,7.98443665 C0.570729045,3.89651462 3.89651462,0.570729045 7.98443665,0.570729045 C12.0723275,0.570729045 15.3980819,3.89648343 15.3980819,7.98443665 C15.3980819,12.0723899 12.0723275,15.3980819 7.98443665,15.3980819 Z" id="Path" fill="#E3342F"></path>
            <path d="M11.4527563,11.941271 C11.6103548,11.941271 11.7381365,12.0690526 11.7381365,12.2266511 C11.7381365,12.3842495 11.6103548,12.5120312 11.4527563,12.5120312 C10.6059415,12.5120312 9.90116179,11.8939259 9.7648655,11.0852865 L6.20403899,11.0852865 C6.06774269,11.8939259 5.36296296,12.5120312 4.51614815,12.5120312 C4.35854971,12.5120312 4.23076803,12.3842495 4.23076803,12.2266511 C4.23076803,12.0690526 4.35854971,11.941271 4.51614815,11.941271 C5.14551267,11.941271 5.65754386,11.4292398 5.65754386,10.7998752 C5.65754386,10.1705107 5.14551267,9.65847953 4.51614815,9.65847953 C4.35854971,9.65847953 4.23076803,9.53069786 4.23076803,9.37309942 C4.23076803,9.21550097 4.35854971,9.0877193 4.51614815,9.0877193 C5.36296296,9.0877193 6.06774269,9.70582456 6.20403899,10.5144639 L9.7648655,10.5144639 C9.90116179,9.70582456 10.6059415,9.0877193 11.4527563,9.0877193 C11.6103548,9.0877193 11.7381365,9.21550097 11.7381365,9.37309942 C11.7381365,9.53069786 11.6103548,9.65847953 11.4527563,9.65847953 C10.8233918,9.65847953 10.3113606,10.1705107 10.3113606,10.7998752 C10.3113606,11.4292398 10.8233918,11.941271 11.4527563,11.941271 Z M4.57621832,6.34978558 C5.15839376,6.34978558 5.63203119,6.82339181 5.63203119,7.40559844 C5.63203119,7.98777388 5.15839376,8.46141131 4.57621832,8.46141131 C3.99404288,8.46141131 3.52040546,7.98777388 3.52040546,7.40559844 C3.52040546,6.823423 3.99404288,6.34978558 4.57621832,6.34978558 Z M11.392655,6.34978558 C11.9747992,6.34978558 12.4484678,6.82339181 12.4484678,7.40559844 C12.4484678,7.98777388 11.9748304,8.46141131 11.392655,8.46141131 C10.8104795,8.46141131 10.3368421,7.98777388 10.3368421,7.40559844 C10.3368421,6.823423 10.8104795,6.34978558 11.392655,6.34978558 Z M5.61104094,3.84583236 C5.74512281,4.37791813 5.59354386,4.92728265 5.20548928,5.31533723 C4.91047173,5.61038596 4.52210526,5.76873294 4.11904873,5.76873294 C3.99201559,5.76873294 3.86354776,5.75301365 3.73601559,5.7208577 C3.58322027,5.68233918 3.49052632,5.52726706 3.52904483,5.37440936 C3.56756335,5.22158285 3.72260429,5.12882651 3.87549318,5.1674386 C4.21099415,5.25189864 4.55731774,5.15639766 4.80193372,4.91175049 C5.0465809,4.66710331 5.14217544,4.32077973 5.05762183,3.98530994 C5.01910331,3.83245224 5.11173489,3.67738012 5.26459259,3.6388616 C5.4174191,3.60031189 5.57252242,3.69297466 5.61104094,3.84583236 Z M12.4397973,5.37437817 C12.4783158,5.52723587 12.385653,5.68230799 12.2327953,5.72079532 C12.1052943,5.75295127 11.9767641,5.76867057 11.8497622,5.76867057 C11.4466745,5.76870175 11.0584016,5.61035478 10.7633216,5.31527485 C10.3752982,4.92722027 10.2237193,4.37791813 10.3578012,3.84580117 C10.3963197,3.69297466 10.5514542,3.60024951 10.7042495,3.63883041 C10.857076,3.67734893 10.9497388,3.83242105 10.9112203,3.98527875 C10.826729,4.32077973 10.9222612,4.66710331 11.1669084,4.9117193 C11.4115556,5.15636647 11.7578791,5.25189864 12.0933489,5.16740741 C12.2462378,5.12888889 12.4012788,5.22152047 12.4397973,5.37437817 Z" id="Shape" fill="#000000"></path>
        </g>
    </g>
</svg>