<svg width="15px" height="14px" viewBox="0 0 15 14" version="1.1" 
    xmlns="http://www.w3.org/2000/svg" 
    xmlns:xlink="http://www.w3.org/1999/xlink">
    <g id="Page-1" stroke="none" stroke-width="1" fill="none" fill-rule="evenodd">
        <g id="plane" fill="#E3342F">
            <path d="M13.8833773,7.94339587 C13.332342,8.21889095 12.7295777,8.35675158 12.0751525,8.35695514 L9.99577549,8.35690989 L6.53442201,13.8847026 C6.47403023,13.9879341 6.37719976,14.0330583 6.24390815,14.0202335 L4.7972424,13.813386 C4.74135167,13.8090659 4.68745146,13.7810414 4.6359036,13.7294935 C4.61862293,13.7122129 4.60563983,13.6950226 4.59711263,13.6778552 C4.54542901,13.6002958 4.53466254,13.5206782 4.56485838,13.4389118 L6.04380095,8.35636706 L2.69850371,8.35650277 L1.78799026,9.9515921 C1.73630669,10.0462511 1.6523463,10.0957407 1.53601864,10.1001513 L0.296290801,10.1001061 C0.218821958,10.1000382 0.150016016,10.0699102 0.0897147138,10.0096089 L0.0767994707,9.99669368 C0.02097666,9.92336403 -0.00286339426,9.84383689 0.00582219067,9.7576146 L0.412618487,6.90985962 L0.00573173757,4.06210463 C-0.011481046,3.98450007 0.0100745046,3.906986 0.0703984403,3.82956236 C0.122014152,3.76935157 0.195208099,3.7348355 0.289799233,3.72633092 L1.53606384,3.71988459 C1.61362317,3.71986198 1.68242906,3.74999002 1.74273036,3.81029133 C1.76858347,3.83614444 1.78357963,3.85548337 1.78783195,3.86842122 L2.69845854,5.4633974 L6.0436653,5.46339738 L4.56481319,0.381124129 C4.53902794,0.286397248 4.55400148,0.19818454 4.61005048,0.116305059 C4.67028392,0.0387909673 4.74782063,0.00011309183 4.84252489,0 L6.49576672,4.52322066e-05 C6.61195868,0.00432015656 6.6937477,0.0516835943 6.74108852,0.142135545 L10.0086455,5.46319386 L12.0751299,5.4631034 C12.7295551,5.46317126 13.3322741,5.6009866 13.8833547,5.87652693 C14.4342318,6.15236131 14.7270979,6.49670752 14.7615009,6.91001799 C14.7271206,7.32353201 14.4343448,7.66783297 13.8833773,7.94339587 Z" id="Path"></path>
        </g>
    </g>
</svg>