<svg width="23px" height="16px" viewBox="0 0 23 16" version="1.1" 
    xmlns="http://www.w3.org/2000/svg" 
    xmlns:xlink="http://www.w3.org/1999/xlink">
    <g stroke="none" stroke-width="1" fill="none" fill-rule="evenodd">
        <g id="wind" fill="#E3342F">
            <path d="M0.310177778,8.67471111 C1.65631111,9.82933333 3.182,11.1380889 6.13315556,11.1380889 C9.0844,11.1380444 10.6101778,9.82933333 11.9563556,8.67471111 C13.2294222,7.5828 14.3288889,6.63973333 16.6221333,6.63973333 C18.9154222,6.63973333 20.0148889,7.5828 21.2879111,8.67471111 C21.6605778,8.99431111 22.2217333,8.95137778 22.5413333,8.57875556 C22.8609333,8.20608889 22.818,7.64493333 22.4453333,7.32533333 C21.0991556,6.17071111 19.5733778,4.86195556 16.6221333,4.86195556 C13.6708889,4.86195556 12.1451111,6.17066667 10.7989333,7.32533333 C9.52586667,8.41724444 8.4264,9.36031111 6.13315556,9.36031111 C3.83995556,9.36031111 2.74062222,8.41728889 1.46764444,7.32533333 C1.09502222,7.00573333 0.533866667,7.04862222 0.214222222,7.42128889 C-0.105422222,7.79391111 -0.0624444444,8.35511111 0.310177778,8.67471111 Z" id="Path"></path>
            <path d="M0.310177778,3.81275556 C1.65626667,4.96742222 3.18195556,6.27613333 6.13315556,6.27613333 C9.0844,6.27613333 10.6101778,4.96742222 11.9563556,3.81275556 C13.2294222,2.72084444 14.3288444,1.77777778 16.6221333,1.77777778 C18.9153333,1.77777778 20.0148,2.7208 21.2879111,3.81275556 C21.6605778,4.13244444 22.2216889,4.08937778 22.5412889,3.71671111 C22.8609333,3.34408889 22.8178667,2.78284444 22.4452444,2.46328889 C21.0990667,1.30862222 19.5732889,0 16.6221333,0 C13.6708889,0 12.1451111,1.30871111 10.7989333,2.46337778 C9.52586667,3.55528889 8.4264,4.49835556 6.13315556,4.49835556 C3.84,4.49835556 2.74062222,3.55533333 1.46764444,2.46337778 C1.09502222,2.14373333 0.533822222,2.18666667 0.214222222,2.55933333 C-0.105422222,2.93195556 -0.0624444444,3.49315556 0.310177778,3.81275556 Z" id="Path"></path>
            <path d="M22.4453333,12.1872444 C21.0991556,11.0326222 19.5733778,9.72386667 16.6221333,9.72386667 C13.6708889,9.72386667 12.1451111,11.0325778 10.7989333,12.1872444 C9.52586667,13.2791556 8.4264,14.2222222 6.13315556,14.2222222 C3.84008889,14.2222222 2.74066667,13.2792 1.46768889,12.1873333 L1.4676,12.1872444 C1.09497778,11.8677333 0.533866667,11.9106667 0.214222222,12.2832444 C-0.105377778,12.6558667 -0.0624,13.2170667 0.310222222,13.5366667 C1.65635556,14.6913333 3.18208889,16 6.13315556,16 C9.0844,16 10.6101778,14.6912889 11.9563556,13.5366222 C13.2294222,12.4447111 14.3288889,11.5016444 16.6221333,11.5016444 C18.9154222,11.5016444 20.0148889,12.4447111 21.2879111,13.5366222 C21.6605778,13.8562222 22.2217333,13.8132889 22.5413333,13.4406667 C22.8609333,13.068 22.818,12.5068444 22.4453333,12.1872444 Z" id="Path"></path>
        </g>
    </g>
</svg>