<svg width="252px" height="239px" viewBox="0 0 252 239" version="1.1" xmlns="http://www.w3.org/2000/svg" xmlns:xlink="http://www.w3.org/1999/xlink">
    <defs>
        <radialGradient cx="15.3342488%" cy="40.499557%" fx="15.3342488%" fy="40.499557%" r="135.811337%" gradientTransform="translate(0.153342,0.404996),scale(1.000000,0.711111),rotate(90.000000),translate(-0.153342,-0.404996)" id="radialGradient-1">
            <stop stop-color="#149F0C" offset="0%"></stop>
            <stop stop-color="#000000" offset="100%"></stop>
        </radialGradient>
        <radialGradient cx="15.3342488%" cy="40.499557%" fx="15.3342488%" fy="40.499557%" r="136.589179%" gradientTransform="translate(0.153342,0.404996),scale(1.000000,0.711111),rotate(90.000000),translate(-0.153342,-0.404996)" id="radialGradient-2">
            <stop stop-color="#149F0C" offset="0%"></stop>
            <stop stop-color="#000000" offset="100%"></stop>
        </radialGradient>
        <radialGradient cx="15.3342488%" cy="40.499557%" fx="15.3342488%" fy="40.499557%" r="127.602266%" gradientTransform="translate(0.153342,0.404996),scale(1.000000,0.761194),rotate(90.000000),translate(-0.153342,-0.404996)" id="radialGradient-3">
            <stop stop-color="#149F0C" offset="0%"></stop>
            <stop stop-color="#000000" offset="100%"></stop>
        </radialGradient>
        <radialGradient cx="15.3342488%" cy="40.499557%" fx="15.3342488%" fy="40.499557%" r="160.871699%" gradientTransform="translate(0.153342,0.404996),scale(1.000000,0.603774),rotate(90.000000),translate(-0.153342,-0.404996)" id="radialGradient-4">
            <stop stop-color="#149F0C" offset="0%"></stop>
            <stop stop-color="#000000" offset="100%"></stop>
        </radialGradient>
        <radialGradient cx="15.3342488%" cy="40.499557%" fx="15.3342488%" fy="40.499557%" r="97.1300827%" id="radialGradient-5">
            <stop stop-color="#149F0C" offset="0%"></stop>
            <stop stop-color="#000000" offset="100%"></stop>
        </radialGradient>
    </defs>
    <g id="Page-1" stroke="none" stroke-width="1" fill="none" fill-rule="evenodd">
        <g id="Group-3" transform="translate(8.000000, -8.000000)">
            <g id="Group-2" transform="translate(36.000000, 0.000000)">
                <ellipse id="Oval" fill="url(#radialGradient-1)" transform="translate(44.339573, 63.686087) rotate(18.000000) translate(-44.339573, -63.686087) " cx="44.3395733" cy="63.6860871" rx="32" ry="45"></ellipse>
                <ellipse id="Oval" fill="url(#radialGradient-2)" transform="translate(100.758479, 52.389609) rotate(17.000000) translate(-100.758479, -52.389609) " cx="100.758479" cy="52.3896086" rx="32" ry="45"></ellipse>
                <ellipse id="Oval" fill="url(#radialGradient-2)" transform="translate(125.517308, 76.686087) rotate(4.000000) translate(-125.517308, -76.686087) " cx="125.517308" cy="76.6860871" rx="32" ry="45"></ellipse>
                <ellipse id="Oval" fill="url(#radialGradient-3)" transform="translate(29.089233, 133.280741) rotate(4.000000) translate(-29.089233, -133.280741) " cx="29.0892329" cy="133.280741" rx="25.5" ry="33.5"></ellipse>
                <ellipse id="Oval" fill="url(#radialGradient-4)" transform="translate(90.867437, 90.294539) rotate(18.000000) translate(-90.867437, -90.294539) " cx="90.8674373" cy="90.2945392" rx="32" ry="53"></ellipse>
                <ellipse id="Oval" fill="url(#radialGradient-2)" transform="translate(103.211936, 172.200878) rotate(115.000000) translate(-103.211936, -172.200878) " cx="103.211936" cy="172.200878" rx="32" ry="45"></ellipse>
                <circle id="Oval" fill="url(#radialGradient-5)" transform="translate(144.212463, 130.212463) rotate(18.000000) translate(-144.212463, -130.212463) " cx="144.212463" cy="130.212463" r="33.5"></circle>
            </g>
            <path d="M102.804688,23.6777344 C109.394531,23.8470052 109.520757,27.4374851 115.673828,29.8027344 C122.510096,32.4306054 106.806935,49.4369357 103.181641,54.9472656 C98.9224556,61.421089 94.2780307,69.2645944 90.4375,74.7578125 C54.3521454,126.371701 163.478687,-47.7493846 83.1914062,78.9160156 C82.2233254,80.4433105 83.4346693,83.1140137 81.9941406,84.2070312 C80.1365466,85.6165019 77.1463599,84.0592276 75.0546875,85.0898438 C74.1939747,85.5139372 75.0949598,87.1748479 74.4785156,87.9101563 C68.8215686,94.6578885 55.5010795,104.611918 48.2128906,106.587891 C46.3851143,107.083437 47.7078217,102.788615 47.9628906,100.912109 L50.5429688,97.0703125 C51.0113239,93.6246918 50.4830027,90.0863545 49.9003906,86.6582031 C49.8361836,86.280402 47.5675021,103.203418 46.0957031,104.960938 C44.2255975,107.194087 40.7015762,107.320906 38.4101562,109.119141 C36.449957,110.657444 34.4500024,112.477402 33.5546875,114.802734 C32.2092222,118.297207 31.4937318,122.202234 31.9414062,125.919922 C32.1345017,127.523472 34.5833109,127.95923 35.3125,129.400391 C36.7554354,132.25219 37.8792923,135.340978 38.3105469,138.507813 C38.3896092,139.088391 36.4333719,137.934162 36.5527344,138.507813 C38.0244053,145.580599 39.9067394,152.620794 42.6386719,159.308594 C43.3653164,161.087427 45.0875961,162.362843 46.7148437,163.384766 C49.5359797,165.156459 53.1712788,165.510524 55.7910156,167.568359 C61.096509,171.735888 65.0299269,177.442833 70.171875,181.810547 C70.8582667,182.393587 72.3779695,182.82825 72.8613281,182.068359 C75.7089383,177.591616 74.6031509,171.975203 75.8125,167.46875 C76.5211964,164.827902 78.3624943,162.629792 79.7226562,160.257813 C82.5753017,155.283099 84.9784392,149.996622 88.4492188,145.431641 C92.1580234,140.553594 102.109423,138.160907 101.121094,132.113281 C99.7602442,123.78619 88.8521207,120.48703 83.3300781,114.107422 C82.0303595,112.605859 81.3345988,110.616724 80.8476562,108.691406 C79.741652,104.318387 82.2156783,98.0275802 78.5859375,95.3496094 C74.1944237,92.1096133 67.4607103,93.4291023 62.21875,94.9472656 C58.7462516,95.9529619 69.4060163,98.0498728 72.8671875,97.0058594 C76.9406009,95.7771717 79.5635848,91.733586 82.6347656,88.7890625 C85.3709571,86.1657132 88.488904,83.6994928 90.2480469,80.3417969 C92.0287341,76.9429791 91.2189911,72.5830054 92.9257812,69.1464844 C95.8888634,63.1804936 99.6004931,57.501716 104.052734,52.546875 C105.565911,50.8628808 108.366995,51.0458587 110.279297,49.8339844 C112.781206,48.2484615 115.261105,46.4904352 117.175781,44.2304687 C119.166733,41.8804703 119.318281,38.0528275 121.802734,36.2324219 C124.006111,34.6179659 127.159507,34.9623491 129.890625,34.9140625 C135.413231,34.8164219 141.261123,33.8697446 146.4375,35.796875 C151.854251,37.813495 156.558637,41.8138586 160.287109,46.2304687 C162.189316,48.4837521 161.244842,52.1233005 162.480469,54.8007812 C163.597037,57.220274 166.335738,58.7266672 167.214844,61.2421875 C168.768964,65.6892302 168.164497,70.6850131 169.599609,75.171875 C170.552047,78.1496597 174.177659,80.1797017 174.271484,83.3046875 C174.382837,87.013422 170.837837,89.9995838 170.154297,93.6464844 C169.388561,97.7319272 171.489565,102.236222 169.996094,106.115234 C162.263438,126.199362 161.475143,117.398646 149.392578,127.888672 C142.831827,133.584685 153.132215,138.550617 136.0625,140.318359 C13.581217,153.002543 149.094968,135.573421 95.9433594,130.300781 C94.1411888,130.122006 96.6935337,133.990776 96.1835938,135.728516 C94.5198422,141.398139 89.944283,146.264097 89.5292969,152.158203 C89.1545044,157.481433 93.5235293,162.227008 93.9433594,167.546875 C94.3085819,172.174784 90.3660014,176.907116 91.8300781,181.3125 C93.761652,187.124576 99.8698244,190.593803 103.291016,195.673828 C105.34305,198.720833 105.991163,202.59566 108.160156,205.560547 C109.549549,207.459766 111.572809,208.941406 113.712891,209.919922 C116.21971,211.066123 119.013301,211.816579 121.769531,211.783203 C299.362146,209.632714 10.1627328,208.394365 160.921875,211.058594 C167.979257,211.183312 175.360103,212.407478 182.082031,210.253906 C201.366237,204.075632 194.255738,183.563764 195.146484,170.085937 C202.13197,64.3889565 194.807549,186.253251 200.998047,153.376953 C207.479897,118.953352 208.49734,122.248744 188.878906,103.6875 C183.291425,98.4011144 180.961715,87.4103089 173.306641,86.6582031 C168.070194,86.1437258 170.851649,96.993475 168.462891,101.681641 C160.227265,117.844837 152.637344,117.23517 154.570312,132.390625 C157.589664,156.063872 169.452792,157.169341 183.466797,175.691406 C184.918653,177.6103 182.741738,180.615744 183.466797,182.910156 C184.179539,185.165594 187.415864,186.335376 187.576172,188.695312 C188.153853,197.199485 184.216681,204.920171 175.150391,206.46875 C171.674514,207.062451 168.378904,204.175165 164.855469,204.035156 C152.386811,203.539696 139.897506,204.919072 127.423828,204.572266 C123.390457,204.460126 118.422495,205.413033 115.470703,202.662109 C106.394979,194.203984 92.0654127,157.454355 96.1796875,143.253906 C99.9922509,130.094816 107.512999,146.099863 103.183594,130.015625 C96.117956,103.76597 89.9620968,112.107104 92.2421875,78.5449219 C93.6489892,57.8372644 111.500156,53.4043536 123.572266,38.9746094 C125.287259,36.9246851 106.425192,24.0669422 121.410156,23.6777344 C126.957208,23.5336596 148.893889,36.8363493 161.042969,34.328125 C164.062442,33.7047431 167.283751,28.5496991 169.533203,30.6582031 C171.693936,32.683547 166.32588,35.7674904 165.65625,38.6523437 C164.585354,43.2659028 163.417325,48.1699678 164.392578,52.8046875 C165.000199,55.6923017 168.845675,56.9141662 170.064453,59.6015625 C170.91084,61.4678377 169.835756,63.7416214 170.261719,65.7460937 C171.294389,70.6055821 174.977838,75.124862 174.412109,80.0605469 C174.175862,82.1216804 169.172623,79.8281327 168.425781,81.7636719 C165.394,89.6209328 170.455396,100.246415 163.476562,107.751953 C163.392863,107.84197 143.992571,118.778355 143.773437,119.828125 C140.174713,137.068008 157.139883,142.165692 165.724609,152.826172 C167.149411,154.595485 167.138758,157.28959 168.660156,158.976562 C171.861256,162.526038 177.348159,164.020643 179.615234,168.228516 C221.352146,245.695554 134.141877,112.883524 188.943359,189.916016 C191.111438,192.963607 190.470123,200.9099 194.070312,199.896484 C202.076856,197.642727 218.420276,189.23511 212.652344,183.242187 L214.068359,179.951172 C212.372079,178.188725 204.833911,178.322412 207.144531,177.519531 C213.76081,175.220545 224.723058,177.859074 231.029297,180.632812 C251.428982,189.605417 198.296717,170.5804 198.412109,173.294922 C198.696315,179.980629 208.44081,182.196616 212.9375,187.152344 C213.290971,187.541899 211.247774,187.165215 211.441406,187.654297 L212.035156,192.724609 C212.516308,193.939916 213.460897,195.066297 214.617187,195.675781 C215.912091,196.358329 217.497166,196.522188 218.953125,196.371094 C222.961225,195.955147 219.774902,188.994239 219.824219,188.318359 C219.862317,187.796231 221.747523,187.510271 221.300781,187.783203 C209.45718,195.018932 214.767834,204.932066 201.986328,217.736328 C191.869514,227.871154 194.092179,213.710766 185.970703,216.517578 C176.319248,219.853156 167.369382,225.046725 157.679687,228.269531 C152.105775,230.123423 139.848621,223.59241 137.267578,223.042969 C121.783773,219.746845 120.890561,239.278386 102.804688,212.744141 C95.266042,201.684002 91.3419581,182.789437 74.0839844,188.833984 C71.9585503,189.578411 69.8219499,190.716749 68.3691406,192.4375 C57.6836432,205.093727 84.9506464,224.88235 95.0976562,212.501953 C96.0936158,211.28678 94.8547737,208.152929 96.4160156,207.976562 L85.8125,204.167969 C101.971851,202.342522 110.816221,226.365294 98.6484375,235.572266 C85.9597515,245.173387 77.1181579,227.270868 69.6542969,223.238281 C65.9350819,221.228858 61.21349,221.486752 57.6035156,219.287109 C55.4127595,217.95223 55.5538328,213.514037 53.0214844,213.103516 C45.3870779,211.865896 37.4332487,216.459486 29.8808594,214.792969 C20.0138404,212.615703 11.3503075,206.681419 2.42773437,201.939453 C-7.63454712,196.591781 17.6524891,191.289538 24.4746094,194.03125 C33.6310015,197.711073 41.5327588,204.390774 50.9980469,207.181641 C54.7601731,208.290914 58.8481253,206.387632 62.609375,205.275391 C63.0975909,205.13102 63.0706063,203.9636 62.609375,203.748047 L41.1660156,188.455078 C30.4769746,183.459621 14.2810361,189.616823 12.7402344,171.662109 C12.0407282,163.510876 39.0162442,179.721113 49.1679687,181.693359 C52.6692345,182.373575 62.0272824,184.280101 59.8652344,181.443359 C52.3384743,171.567782 35.0727638,171.986141 25.4003906,166.376953 C16.2173997,161.051567 28.571217,150.717237 26.7558594,143.994141 C24.9118389,137.164893 15.6488016,130.020699 19.4648437,124.064453 C24.3542352,116.432877 38.3977343,121.244842 45.1816406,115.234375 C47.7894377,112.923895 38.4948139,110.639927 38.5488281,107.15625 C38.6591261,100.042524 43.776229,93.889328 45.6191406,87.0175781 C45.9419654,85.8138466 45.5528204,84.4244597 44.9355469,83.3417969 C43.4410576,80.7205475 45.8359375,84.1582031 44,81.7636719" id="Path-2" stroke="#8B572A" stroke-width="16" stroke-linecap="round"></path>
        </g>
    </g>
</svg>