<svg height="512pt" viewBox="0 0 512 512" width="512pt" 
    xmlns="http://www.w3.org/2000/svg">
    <g fill="#e3342f">
        <path d="m255.9375 270.933594c-58.867188 0-107.628906 44.089844-115.007812 100.976562h23.734374c7.121094-23.828125 29.234376-41.25 55.347657-41.25h71.851562c26.113281 0 48.222657 17.421875 55.347657 41.25h23.730468c-7.375-56.886718-56.140625-100.976562-115.003906-100.976562zm0 0"/>
        <path d="m177.242188 512h63.699218v-80.511719h29.992188v80.511719h63.699218c11.226563 0 20.359376-9.132812 20.359376-20.359375s-9.132813-20.359375-20.359376-20.359375h-14.996093v-82.855469c0-15.316406-12.457031-27.773437-27.773438-27.773437h-20.929687v26.503906h-29.992188v-26.503906h-20.929687c-15.316407 0-27.773438 12.457031-27.773438 27.773437v82.855469h-14.996093c-11.226563 0-20.359376 9.132812-20.359376 20.359375s9.132813 20.359375 20.359376 20.359375zm0 0"/>
        <path d="m436.914062 74.960938c-48.34375-48.339844-112.613281-74.960938-180.976562-74.960938s-132.632812 26.621094-180.976562 74.960938c-48.339844 48.34375-74.960938 112.613281-74.960938 180.976562s26.621094 132.632812 74.960938 180.976562c16.269531 16.269532 34.347656 30.066407 53.777343 41.226563 4.578125-16.425781 17.289063-29.5 33.507813-34.570313v-41.667968h-52.273438v-14.996094c0-80.484375 65.480469-145.964844 145.964844-145.964844s145.964844 65.480469 145.964844 145.964844v14.996094h-52.273438v41.667968c16.21875 5.070313 28.929688 18.140626 33.507813 34.570313 19.429687-11.160156 37.507812-24.960937 53.777343-41.226563 48.339844-48.34375 74.960938-112.613281 74.960938-180.976562s-26.621094-132.632812-74.960938-180.976562zm-322.527343 134.988281v-29.992188h65.3125l-46.183594-51.332031 22.296875-20.058594 91.21875 101.382813zm283.097656 0h-132.640625l91.21875-101.382813 22.296875 20.058594-46.183594 51.332031h65.308594zm0 0"/>
    </g>
</svg>